<svg xmlns="http://www.w3.org/2000/svg" xmlns:xlink="http://www.w3.org/1999/xlink" width="500" zoomAndPan="magnify" viewBox="0 0 375 374.999991" height="500" preserveAspectRatio="xMidYMid meet" version="1.0"><defs><clipPath id="27f80c086d"><path d="M 33.75 0 L 341.25 0 C 359.890625 0 375 15.109375 375 33.75 L 375 341.25 C 375 359.890625 359.890625 375 341.25 375 L 33.75 375 C 15.109375 375 0 359.890625 0 341.25 L 0 33.75 C 0 15.109375 15.109375 0 33.75 0 Z M 33.75 0 " clip-rule="nonzero"/></clipPath><clipPath id="2b55e48593"><path d="M 86.136719 105.152344 L 129.75 105.152344 L 129.75 263.769531 L 86.136719 263.769531 Z M 86.136719 105.152344 " clip-rule="nonzero"/></clipPath><clipPath id="5796ca5842"><path d="M 93 80 L 280 80 L 280 274 L 93 274 Z M 93 80 " clip-rule="nonzero"/></clipPath><clipPath id="df9aa10974"><path d="M 93.238281 108.863281 L 123.746094 80.027344 L 279.121094 244.398438 L 248.617188 273.238281 Z M 93.238281 108.863281 " clip-rule="nonzero"/></clipPath><clipPath id="1fa0cb11c3"><path d="M 24 234 L 121 234 L 121 312 L 24 312 Z M 24 234 " clip-rule="nonzero"/></clipPath><clipPath id="a205b633ec"><path d="M 100.707031 234.3125 L 120.472656 271.550781 L 44.636719 311.800781 L 24.871094 274.5625 Z M 100.707031 234.3125 " clip-rule="nonzero"/></clipPath><clipPath id="b18f2c67ba"><path d="M 83 82 L 149 82 L 149 145 L 83 145 Z M 83 82 " clip-rule="nonzero"/></clipPath><clipPath id="b5a269eb9a"><path d="M 83.066406 106.816406 L 127.460938 82.152344 L 148.339844 119.730469 L 103.945312 144.394531 Z M 83.066406 106.816406 " clip-rule="nonzero"/></clipPath><clipPath id="15da5729d0"><path d="M 9.96875 263.761719 L 43.183594 263.761719 L 43.183594 300.742188 L 9.96875 300.742188 Z M 9.96875 263.761719 " clip-rule="nonzero"/></clipPath><clipPath id="3641af27b8"><path d="M 9.96875 282.253906 L 43.183594 263.765625 L 43.183594 300.742188 Z M 9.96875 282.253906 " clip-rule="nonzero"/></clipPath><clipPath id="2ca13349b6"><path d="M 22 292 L 57 292 L 57 318 L 22 318 Z M 22 292 " clip-rule="nonzero"/></clipPath><clipPath id="2adc782ec9"><path d="M 22.285156 302.433594 L 27.816406 292.007812 L 56.683594 307.320312 L 51.15625 317.746094 Z M 22.285156 302.433594 " clip-rule="nonzero"/></clipPath><clipPath id="b56fcee994"><path d="M 107 252 L 133 252 L 133 276 L 107 276 Z M 107 252 " clip-rule="nonzero"/></clipPath><clipPath id="553c46faa9"><path d="M 124.984375 252.96875 L 132.0625 267.203125 L 115.023438 275.679688 L 107.941406 261.445312 Z M 124.984375 252.96875 " clip-rule="nonzero"/></clipPath><clipPath id="aa88f3b937"><path d="M 129.75 161.953125 L 141.550781 161.953125 L 141.550781 273.238281 L 129.75 273.238281 Z M 129.75 161.953125 " clip-rule="nonzero"/></clipPath><clipPath id="ce083367da"><path d="M 246.984375 98.210938 L 288.902344 98.210938 L 288.902344 249.1875 L 246.984375 249.1875 Z M 246.984375 98.210938 " clip-rule="nonzero"/></clipPath><clipPath id="5181f62011"><path d="M 226 210 L 289 210 L 289 274 L 226 274 Z M 226 210 " clip-rule="nonzero"/></clipPath><clipPath id="13f22ce2d5"><path d="M 226.113281 233.65625 L 265.929688 210.546875 L 288.902344 250.125 L 249.085938 273.238281 Z M 226.113281 233.65625 " clip-rule="nonzero"/></clipPath><clipPath id="f94af8394b"><path d="M 246 58 L 345 58 L 345 131 L 246 131 Z M 246 58 " clip-rule="nonzero"/></clipPath><clipPath id="fd01b0130d"><path d="M 246.984375 97.425781 L 327.953125 58.542969 L 344.007812 91.984375 L 263.042969 130.863281 Z M 246.984375 97.425781 " clip-rule="nonzero"/></clipPath><clipPath id="ac55b091bd"><path d="M 238 61 L 327 61 L 327 129 L 238 129 Z M 238 61 " clip-rule="nonzero"/></clipPath><clipPath id="01cdbbe664"><path d="M 238.4375 96.277344 L 310.429688 61.324219 L 326.117188 93.640625 L 254.125 128.59375 Z M 238.4375 96.277344 " clip-rule="nonzero"/></clipPath><clipPath id="a19329685e"><path d="M 324 57 L 366 57 L 366 104 L 324 104 Z M 324 57 " clip-rule="nonzero"/></clipPath><clipPath id="c289698eb6"><path d="M 366.433594 58.636719 L 364.847656 105.214844 L 324.148438 103.828125 L 325.734375 57.25 Z M 366.433594 58.636719 " clip-rule="nonzero"/></clipPath><clipPath id="008921b67c"><path d="M 365.640625 81.890625 L 324.148438 103.761719 L 325.734375 57.25 Z M 365.640625 81.890625 " clip-rule="nonzero"/></clipPath><clipPath id="41ccb2d0d6"><path d="M 3 233 L 87 233 L 87 285 L 3 285 Z M 3 233 " clip-rule="nonzero"/></clipPath><clipPath id="699731cecb"><path d="M 80.675781 233.46875 L 86.132812 243.933594 L 8.773438 284.273438 L 3.316406 273.808594 Z M 80.675781 233.46875 " clip-rule="nonzero"/></clipPath><clipPath id="38747f15ef"><path d="M 74.335938 105.152344 L 86.136719 105.152344 L 86.136719 243.828125 L 74.335938 243.828125 Z M 74.335938 105.152344 " clip-rule="nonzero"/></clipPath><clipPath id="78f5d2cf12"><path d="M 0 280 L 55 280 L 55 323 L 0 323 Z M 0 280 " clip-rule="nonzero"/></clipPath><clipPath id="544839d25d"><path d="M 0 297.054688 L 9.375 280.492188 L 54.894531 306.265625 L 45.523438 322.824219 Z M 0 297.054688 " clip-rule="nonzero"/></clipPath><clipPath id="b9d363cf3e"><path d="M 72 70 L 138 70 L 138 117 L 72 117 Z M 72 70 " clip-rule="nonzero"/></clipPath><clipPath id="18c12a16b1"><path d="M 130.113281 70.539062 L 137.515625 83.675781 L 80.074219 116.042969 L 72.671875 102.90625 Z M 130.113281 70.539062 " clip-rule="nonzero"/></clipPath><clipPath id="ee93c2bf1c"><path d="M 237.722656 85.417969 L 246.984375 85.417969 L 246.984375 191.546875 L 237.722656 191.546875 Z M 237.722656 85.417969 " clip-rule="nonzero"/></clipPath><clipPath id="79fee3c131"><path d="M 219 44 L 340 44 L 340 109 L 219 109 Z M 219 44 " clip-rule="nonzero"/></clipPath><clipPath id="bccb0b4187"><path d="M 223.15625 108.386719 L 219.175781 100.027344 L 335.089844 44.886719 L 339.066406 53.25 Z M 223.15625 108.386719 " clip-rule="nonzero"/></clipPath><clipPath id="ba559d0838"><path d="M 288 77 L 373 77 L 373 125 L 288 125 Z M 288 77 " clip-rule="nonzero"/></clipPath><clipPath id="c51705b4c5"><path d="M 292.9375 124.335938 L 288.90625 116 L 368.433594 77.550781 L 372.464844 85.886719 Z M 292.9375 124.335938 " clip-rule="nonzero"/></clipPath><clipPath id="b2b62e462b"><path d="M 288.902344 116.039062 L 298.160156 116.039062 L 298.160156 263.765625 L 288.902344 263.765625 Z M 288.902344 116.039062 " clip-rule="nonzero"/></clipPath><clipPath id="293b0f6091"><path d="M 240 246 L 298 246 L 298 286 L 240 286 Z M 240 246 " clip-rule="nonzero"/></clipPath><clipPath id="e1c7477b9f"><path d="M 245.34375 285.710938 L 240.605469 277.753906 L 292.308594 246.960938 L 297.046875 254.917969 Z M 245.34375 285.710938 " clip-rule="nonzero"/></clipPath><clipPath id="0d3037a16b"><path d="M 41 258 L 143 258 L 143 322 L 41 322 Z M 41 258 " clip-rule="nonzero"/></clipPath><clipPath id="eff177d2a1"><path d="M 137.089844 258.871094 L 142.699219 269.253906 L 46.703125 321.132812 L 41.09375 310.75 Z M 137.089844 258.871094 " clip-rule="nonzero"/></clipPath><clipPath id="246e448fb5"><path d="M 323 48 L 371 48 L 371 83 L 323 83 Z M 323 48 " clip-rule="nonzero"/></clipPath><clipPath id="0425f5aa8c"><path d="M 323.128906 56.609375 L 327.996094 48.730469 L 370.457031 74.972656 L 365.589844 82.851562 Z M 323.128906 56.609375 " clip-rule="nonzero"/></clipPath></defs><g clip-path="url(#27f80c086d)"><rect x="-37.5" width="450" fill="#000000" y="-37.499999" height="449.999989" fill-opacity="1"/></g><g clip-path="url(#2b55e48593)"><path fill="#ffffff" d="M 86.136719 105.152344 L 129.75 105.152344 L 129.75 263.757812 L 86.136719 263.757812 Z M 86.136719 105.152344 " fill-opacity="1" fill-rule="nonzero"/></g><g clip-path="url(#5796ca5842)"><g clip-path="url(#df9aa10974)"><path fill="#ffffff" d="M 93.238281 108.863281 L 123.746094 80.027344 L 279.085938 244.359375 L 248.578125 273.195312 Z M 93.238281 108.863281 " fill-opacity="1" fill-rule="nonzero"/></g></g><g clip-path="url(#1fa0cb11c3)"><g clip-path="url(#a205b633ec)"><path fill="#ffffff" d="M 100.707031 234.3125 L 120.472656 271.550781 L 44.6875 311.773438 L 24.921875 274.535156 Z M 100.707031 234.3125 " fill-opacity="1" fill-rule="nonzero"/></g></g><g clip-path="url(#b18f2c67ba)"><g clip-path="url(#b5a269eb9a)"><path fill="#ffffff" d="M 83.066406 106.816406 L 127.398438 82.1875 L 148.273438 119.765625 L 103.945312 144.394531 Z M 83.066406 106.816406 " fill-opacity="1" fill-rule="nonzero"/></g></g><g clip-path="url(#15da5729d0)"><g clip-path="url(#3641af27b8)"><path fill="#ffffff" d="M 9.96875 300.742188 L 9.96875 263.761719 L 43.183594 263.761719 L 43.183594 300.742188 Z M 9.96875 300.742188 " fill-opacity="1" fill-rule="nonzero"/></g></g><g clip-path="url(#2ca13349b6)"><g clip-path="url(#2adc782ec9)"><path fill="#ffffff" d="M 22.285156 302.433594 L 27.816406 292.007812 L 56.6875 307.324219 L 51.160156 317.746094 Z M 22.285156 302.433594 " fill-opacity="1" fill-rule="nonzero"/></g></g><g clip-path="url(#b56fcee994)"><g clip-path="url(#553c46faa9)"><path fill="#ffffff" d="M 124.984375 252.96875 L 132.0625 267.203125 L 115.050781 275.667969 L 107.96875 261.433594 Z M 124.984375 252.96875 " fill-opacity="1" fill-rule="nonzero"/></g></g><g clip-path="url(#aa88f3b937)"><path fill="#000000" d="M 129.75 161.953125 L 141.550781 161.953125 L 141.550781 273.234375 L 129.75 273.234375 Z M 129.75 161.953125 " fill-opacity="1" fill-rule="nonzero"/></g><g clip-path="url(#ce083367da)"><path fill="#ffffff" d="M 246.984375 98.210938 L 288.902344 98.210938 L 288.902344 249.183594 L 246.984375 249.183594 Z M 246.984375 98.210938 " fill-opacity="1" fill-rule="nonzero"/></g><g clip-path="url(#5181f62011)"><g clip-path="url(#13f22ce2d5)"><path fill="#ffffff" d="M 226.113281 233.65625 L 266 210.507812 L 288.972656 250.085938 L 249.085938 273.238281 Z M 226.113281 233.65625 " fill-opacity="1" fill-rule="nonzero"/></g></g><g clip-path="url(#f94af8394b)"><g clip-path="url(#fd01b0130d)"><path fill="#ffffff" d="M 246.984375 97.425781 L 327.96875 58.535156 L 344.027344 91.976562 L 263.042969 130.863281 Z M 246.984375 97.425781 " fill-opacity="1" fill-rule="nonzero"/></g></g><g clip-path="url(#ac55b091bd)"><g clip-path="url(#01cdbbe664)"><path fill="#ffffff" d="M 238.4375 96.277344 L 310.390625 61.347656 L 326.078125 93.660156 L 254.125 128.59375 Z M 238.4375 96.277344 " fill-opacity="1" fill-rule="nonzero"/></g></g><g clip-path="url(#a19329685e)"><g clip-path="url(#c289698eb6)"><g clip-path="url(#008921b67c)"><path fill="#ffffff" d="M 366.433594 58.636719 L 364.847656 105.214844 L 324.148438 103.828125 L 325.734375 57.25 Z M 366.433594 58.636719 " fill-opacity="1" fill-rule="nonzero"/></g></g></g><g clip-path="url(#41ccb2d0d6)"><g clip-path="url(#699731cecb)"><path fill="#000000" d="M 80.675781 233.46875 L 86.132812 243.933594 L 8.757812 284.28125 L 3.300781 273.816406 Z M 80.675781 233.46875 " fill-opacity="1" fill-rule="nonzero"/></g></g><g clip-path="url(#38747f15ef)"><path fill="#000000" d="M 74.335938 105.152344 L 86.136719 105.152344 L 86.136719 243.8125 L 74.335938 243.8125 Z M 74.335938 105.152344 " fill-opacity="1" fill-rule="nonzero"/></g><g clip-path="url(#78f5d2cf12)"><g clip-path="url(#544839d25d)"><path fill="#000000" d="M 0 297.054688 L 9.375 280.492188 L 54.914062 306.273438 L 45.539062 322.832031 Z M 0 297.054688 " fill-opacity="1" fill-rule="nonzero"/></g></g><g clip-path="url(#b9d363cf3e)"><g clip-path="url(#18c12a16b1)"><path fill="#000000" d="M 130.113281 70.539062 L 137.515625 83.675781 L 80.089844 116.035156 L 72.6875 102.894531 Z M 130.113281 70.539062 " fill-opacity="1" fill-rule="nonzero"/></g></g><g clip-path="url(#ee93c2bf1c)"><path fill="#000000" d="M 246.984375 191.546875 L 237.722656 191.546875 L 237.722656 85.429688 L 246.984375 85.429688 Z M 246.984375 191.546875 " fill-opacity="1" fill-rule="nonzero"/></g><g clip-path="url(#79fee3c131)"><g clip-path="url(#bccb0b4187)"><path fill="#000000" d="M 223.15625 108.386719 L 219.175781 100.027344 L 335.089844 44.886719 L 339.066406 53.25 Z M 223.15625 108.386719 " fill-opacity="1" fill-rule="nonzero"/></g></g><g clip-path="url(#ba559d0838)"><g clip-path="url(#c51705b4c5)"><path fill="#000000" d="M 292.9375 124.335938 L 288.90625 116 L 368.421875 77.554688 L 372.453125 85.890625 Z M 292.9375 124.335938 " fill-opacity="1" fill-rule="nonzero"/></g></g><g clip-path="url(#b2b62e462b)"><path fill="#000000" d="M 298.160156 263.765625 L 288.902344 263.765625 L 288.902344 116.019531 L 298.160156 116.019531 Z M 298.160156 263.765625 " fill-opacity="1" fill-rule="nonzero"/></g><g clip-path="url(#293b0f6091)"><g clip-path="url(#e1c7477b9f)"><path fill="#000000" d="M 245.34375 285.710938 L 240.605469 277.753906 L 292.3125 246.960938 L 297.050781 254.914062 Z M 245.34375 285.710938 " fill-opacity="1" fill-rule="nonzero"/></g></g><g clip-path="url(#0d3037a16b)"><g clip-path="url(#eff177d2a1)"><path fill="#000000" d="M 137.089844 258.871094 L 142.699219 269.253906 L 46.707031 321.128906 L 41.097656 310.75 Z M 137.089844 258.871094 " fill-opacity="1" fill-rule="nonzero"/></g></g><g clip-path="url(#246e448fb5)"><g clip-path="url(#0425f5aa8c)"><path fill="#000000" d="M 323.128906 56.609375 L 327.996094 48.730469 L 370.453125 74.972656 L 365.585938 82.847656 Z M 323.128906 56.609375 " fill-opacity="1" fill-rule="nonzero"/></g></g></svg>