<svg xmlns="http://www.w3.org/2000/svg" xmlns:xlink="http://www.w3.org/1999/xlink" width="500" zoomAndPan="magnify" viewBox="0 0 375 374.999991" height="500" preserveAspectRatio="xMidYMid meet" version="1.0"><defs><clipPath id="365889ac3b"><path d="M 33.75 0 L 341.25 0 C 359.890625 0 375 15.109375 375 33.75 L 375 341.25 C 375 359.890625 359.890625 375 341.25 375 L 33.75 375 C 15.109375 375 0 359.890625 0 341.25 L 0 33.75 C 0 15.109375 15.109375 0 33.75 0 Z M 33.75 0 " clip-rule="nonzero"/></clipPath><clipPath id="405f63f8ad"><path d="M 86.136719 105.152344 L 129.75 105.152344 L 129.75 263.769531 L 86.136719 263.769531 Z M 86.136719 105.152344 " clip-rule="nonzero"/></clipPath><clipPath id="de07eff5d4"><path d="M 97 84 L 280 84 L 280 274 L 97 274 Z M 97 84 " clip-rule="nonzero"/></clipPath><clipPath id="2278936562"><path d="M 97.019531 112.863281 L 127.527344 84.027344 L 279.125 244.398438 L 248.617188 273.238281 Z M 97.019531 112.863281 " clip-rule="nonzero"/></clipPath><clipPath id="51c8c5078d"><path d="M 24 234 L 121 234 L 121 312 L 24 312 Z M 24 234 " clip-rule="nonzero"/></clipPath><clipPath id="6df92af817"><path d="M 100.707031 234.3125 L 120.472656 271.550781 L 44.636719 311.800781 L 24.871094 274.5625 Z M 100.707031 234.3125 " clip-rule="nonzero"/></clipPath><clipPath id="599198205a"><path d="M 83 82 L 149 82 L 149 145 L 83 145 Z M 83 82 " clip-rule="nonzero"/></clipPath><clipPath id="7248db0e97"><path d="M 83.066406 106.816406 L 127.460938 82.152344 L 148.339844 119.730469 L 103.945312 144.394531 Z M 83.066406 106.816406 " clip-rule="nonzero"/></clipPath><clipPath id="61e27a04e0"><path d="M 9.96875 263.761719 L 43.183594 263.761719 L 43.183594 300.742188 L 9.96875 300.742188 Z M 9.96875 263.761719 " clip-rule="nonzero"/></clipPath><clipPath id="0cc3d3ca88"><path d="M 9.96875 282.253906 L 43.183594 263.765625 L 43.183594 300.742188 Z M 9.96875 282.253906 " clip-rule="nonzero"/></clipPath><clipPath id="9a6ba3904c"><path d="M 22 292 L 57 292 L 57 318 L 22 318 Z M 22 292 " clip-rule="nonzero"/></clipPath><clipPath id="fb980c73df"><path d="M 22.285156 302.433594 L 27.816406 292.007812 L 56.683594 307.320312 L 51.15625 317.746094 Z M 22.285156 302.433594 " clip-rule="nonzero"/></clipPath><clipPath id="6345e4d340"><path d="M 107 252 L 133 252 L 133 276 L 107 276 Z M 107 252 " clip-rule="nonzero"/></clipPath><clipPath id="7314fb1f12"><path d="M 124.984375 252.96875 L 132.0625 267.203125 L 115.023438 275.679688 L 107.941406 261.445312 Z M 124.984375 252.96875 " clip-rule="nonzero"/></clipPath><clipPath id="4543b4207b"><path d="M 129.75 161.953125 L 141.550781 161.953125 L 141.550781 273.238281 L 129.75 273.238281 Z M 129.75 161.953125 " clip-rule="nonzero"/></clipPath><clipPath id="46e85e0725"><path d="M 246.984375 98.210938 L 288.902344 98.210938 L 288.902344 249.1875 L 246.984375 249.1875 Z M 246.984375 98.210938 " clip-rule="nonzero"/></clipPath><clipPath id="475ec25db1"><path d="M 226 210 L 289 210 L 289 274 L 226 274 Z M 226 210 " clip-rule="nonzero"/></clipPath><clipPath id="f8cfdb07a5"><path d="M 226.113281 233.65625 L 265.929688 210.546875 L 288.902344 250.125 L 249.085938 273.238281 Z M 226.113281 233.65625 " clip-rule="nonzero"/></clipPath><clipPath id="f2906a5d78"><path d="M 246 58 L 345 58 L 345 131 L 246 131 Z M 246 58 " clip-rule="nonzero"/></clipPath><clipPath id="9c790b051b"><path d="M 246.984375 97.425781 L 327.953125 58.542969 L 344.007812 91.984375 L 263.042969 130.863281 Z M 246.984375 97.425781 " clip-rule="nonzero"/></clipPath><clipPath id="10cdb8d6f0"><path d="M 239 62 L 327 62 L 327 129 L 239 129 Z M 239 62 " clip-rule="nonzero"/></clipPath><clipPath id="efb9dcd193"><path d="M 239.054688 97.554688 L 311.050781 62.601562 L 326.117188 93.640625 L 254.125 128.59375 Z M 239.054688 97.554688 " clip-rule="nonzero"/></clipPath><clipPath id="8c57450af2"><path d="M 324 57 L 366 57 L 366 104 L 324 104 Z M 324 57 " clip-rule="nonzero"/></clipPath><clipPath id="3fcaae102a"><path d="M 366.433594 58.636719 L 364.847656 105.214844 L 324.148438 103.828125 L 325.734375 57.25 Z M 366.433594 58.636719 " clip-rule="nonzero"/></clipPath><clipPath id="68441bb408"><path d="M 365.640625 81.890625 L 324.148438 103.761719 L 325.734375 57.25 Z M 365.640625 81.890625 " clip-rule="nonzero"/></clipPath><clipPath id="a548621177"><path d="M 3 233 L 87 233 L 87 285 L 3 285 Z M 3 233 " clip-rule="nonzero"/></clipPath><clipPath id="2b4548c1ef"><path d="M 80.675781 233.46875 L 86.132812 243.933594 L 8.773438 284.273438 L 3.316406 273.808594 Z M 80.675781 233.46875 " clip-rule="nonzero"/></clipPath><clipPath id="479af3340a"><path d="M 74.335938 105.152344 L 86.136719 105.152344 L 86.136719 243.828125 L 74.335938 243.828125 Z M 74.335938 105.152344 " clip-rule="nonzero"/></clipPath><clipPath id="5ace6a84f1"><path d="M 0 280 L 55 280 L 55 329 L 0 329 Z M 0 280 " clip-rule="nonzero"/></clipPath><clipPath id="c36325251f"><path d="M -3.070312 302.484375 L 9.378906 280.496094 L 54.898438 306.265625 L 42.449219 328.257812 Z M -3.070312 302.484375 " clip-rule="nonzero"/></clipPath><clipPath id="0b5bac92c0"><path d="M 75 75 L 138 75 L 138 117 L 75 117 Z M 75 75 " clip-rule="nonzero"/></clipPath><clipPath id="3c49be34eb"><path d="M 132.769531 75.25 L 137.519531 83.675781 L 80.074219 116.039062 L 75.328125 107.613281 Z M 132.769531 75.25 " clip-rule="nonzero"/></clipPath><clipPath id="4148a956da"><path d="M 237.722656 85.417969 L 246.984375 85.417969 L 246.984375 200.394531 L 237.722656 200.394531 Z M 237.722656 85.417969 " clip-rule="nonzero"/></clipPath><clipPath id="646bc23bd0"><path d="M 219 44 L 340 44 L 340 109 L 219 109 Z M 219 44 " clip-rule="nonzero"/></clipPath><clipPath id="4b952e85a3"><path d="M 223.15625 108.386719 L 219.175781 100.027344 L 335.089844 44.886719 L 339.066406 53.25 Z M 223.15625 108.386719 " clip-rule="nonzero"/></clipPath><clipPath id="0b34626c99"><path d="M 288 77 L 373 77 L 373 125 L 288 125 Z M 288 77 " clip-rule="nonzero"/></clipPath><clipPath id="e5ed97e901"><path d="M 292.9375 124.335938 L 288.90625 116 L 368.433594 77.550781 L 372.464844 85.886719 Z M 292.9375 124.335938 " clip-rule="nonzero"/></clipPath><clipPath id="0d5d083896"><path d="M 288.902344 116.039062 L 298.160156 116.039062 L 298.160156 263.765625 L 288.902344 263.765625 Z M 288.902344 116.039062 " clip-rule="nonzero"/></clipPath><clipPath id="57be0fb035"><path d="M 242 243 L 303 243 L 303 285 L 242 285 Z M 242 243 " clip-rule="nonzero"/></clipPath><clipPath id="d7aadd37ea"><path d="M 247.09375 284.808594 L 242.359375 276.851562 L 297.824219 243.820312 L 302.558594 251.777344 Z M 247.09375 284.808594 " clip-rule="nonzero"/></clipPath><clipPath id="eeffca35e7"><path d="M 41 258 L 143 258 L 143 322 L 41 322 Z M 41 258 " clip-rule="nonzero"/></clipPath><clipPath id="35f78bd327"><path d="M 137.089844 258.871094 L 142.699219 269.253906 L 46.703125 321.132812 L 41.09375 310.75 Z M 137.089844 258.871094 " clip-rule="nonzero"/></clipPath><clipPath id="d4e04b3175"><path d="M 323 48 L 371 48 L 371 83 L 323 83 Z M 323 48 " clip-rule="nonzero"/></clipPath><clipPath id="1cefb3e484"><path d="M 323.128906 56.609375 L 327.996094 48.730469 L 370.457031 74.972656 L 365.589844 82.851562 Z M 323.128906 56.609375 " clip-rule="nonzero"/></clipPath><clipPath id="e2c24f7fbe"><path d="M 227 257 L 256 257 L 256 287 L 227 287 Z M 227 257 " clip-rule="nonzero"/></clipPath><clipPath id="1480825085"><path d="M 227.507812 264.378906 L 234.199219 257.976562 L 255.378906 280.105469 L 248.691406 286.507812 Z M 227.507812 264.378906 " clip-rule="nonzero"/></clipPath></defs><g clip-path="url(#365889ac3b)"><rect x="-37.5" width="450" fill="#ffffff" y="-37.499999" height="449.999989" fill-opacity="1"/></g><g clip-path="url(#405f63f8ad)"><path fill="#000000" d="M 86.136719 105.152344 L 129.75 105.152344 L 129.75 263.757812 L 86.136719 263.757812 Z M 86.136719 105.152344 " fill-opacity="1" fill-rule="nonzero"/></g><g clip-path="url(#de07eff5d4)"><g clip-path="url(#2278936562)"><path fill="#000000" d="M 97.019531 112.863281 L 127.527344 84.027344 L 279.148438 244.425781 L 248.640625 273.261719 Z M 97.019531 112.863281 " fill-opacity="1" fill-rule="nonzero"/></g></g><g clip-path="url(#51c8c5078d)"><g clip-path="url(#6df92af817)"><path fill="#000000" d="M 100.707031 234.3125 L 120.472656 271.550781 L 44.6875 311.773438 L 24.921875 274.535156 Z M 100.707031 234.3125 " fill-opacity="1" fill-rule="nonzero"/></g></g><g clip-path="url(#599198205a)"><g clip-path="url(#7248db0e97)"><path fill="#000000" d="M 83.066406 106.816406 L 127.398438 82.1875 L 148.273438 119.765625 L 103.945312 144.394531 Z M 83.066406 106.816406 " fill-opacity="1" fill-rule="nonzero"/></g></g><g clip-path="url(#61e27a04e0)"><g clip-path="url(#0cc3d3ca88)"><path fill="#000000" d="M 9.96875 300.742188 L 9.96875 263.761719 L 43.183594 263.761719 L 43.183594 300.742188 Z M 9.96875 300.742188 " fill-opacity="1" fill-rule="nonzero"/></g></g><g clip-path="url(#9a6ba3904c)"><g clip-path="url(#fb980c73df)"><path fill="#ffffff" d="M 22.285156 302.433594 L 27.816406 292.007812 L 56.6875 307.324219 L 51.160156 317.746094 Z M 22.285156 302.433594 " fill-opacity="1" fill-rule="nonzero"/></g></g><g clip-path="url(#6345e4d340)"><g clip-path="url(#7314fb1f12)"><path fill="#000000" d="M 124.984375 252.96875 L 132.0625 267.203125 L 115.050781 275.667969 L 107.96875 261.433594 Z M 124.984375 252.96875 " fill-opacity="1" fill-rule="nonzero"/></g></g><g clip-path="url(#4543b4207b)"><path fill="#ffffff" d="M 129.75 161.953125 L 141.550781 161.953125 L 141.550781 273.234375 L 129.75 273.234375 Z M 129.75 161.953125 " fill-opacity="1" fill-rule="nonzero"/></g><g clip-path="url(#46e85e0725)"><path fill="#000000" d="M 246.984375 98.210938 L 288.902344 98.210938 L 288.902344 249.183594 L 246.984375 249.183594 Z M 246.984375 98.210938 " fill-opacity="1" fill-rule="nonzero"/></g><g clip-path="url(#475ec25db1)"><g clip-path="url(#f8cfdb07a5)"><path fill="#000000" d="M 226.113281 233.65625 L 266 210.507812 L 288.972656 250.085938 L 249.085938 273.238281 Z M 226.113281 233.65625 " fill-opacity="1" fill-rule="nonzero"/></g></g><g clip-path="url(#f2906a5d78)"><g clip-path="url(#9c790b051b)"><path fill="#000000" d="M 246.984375 97.425781 L 327.96875 58.535156 L 344.027344 91.976562 L 263.042969 130.863281 Z M 246.984375 97.425781 " fill-opacity="1" fill-rule="nonzero"/></g></g><g clip-path="url(#10cdb8d6f0)"><g clip-path="url(#efb9dcd193)"><path fill="#000000" d="M 239.054688 97.554688 L 311.078125 62.589844 L 326.144531 93.628906 L 254.125 128.59375 Z M 239.054688 97.554688 " fill-opacity="1" fill-rule="nonzero"/></g></g><g clip-path="url(#8c57450af2)"><g clip-path="url(#3fcaae102a)"><g clip-path="url(#68441bb408)"><path fill="#000000" d="M 366.433594 58.636719 L 364.847656 105.214844 L 324.148438 103.828125 L 325.734375 57.25 Z M 366.433594 58.636719 " fill-opacity="1" fill-rule="nonzero"/></g></g></g><g clip-path="url(#a548621177)"><g clip-path="url(#2b4548c1ef)"><path fill="#ffffff" d="M 80.675781 233.46875 L 86.132812 243.933594 L 8.757812 284.28125 L 3.300781 273.816406 Z M 80.675781 233.46875 " fill-opacity="1" fill-rule="nonzero"/></g></g><g clip-path="url(#479af3340a)"><path fill="#ffffff" d="M 74.335938 105.152344 L 86.136719 105.152344 L 86.136719 243.8125 L 74.335938 243.8125 Z M 74.335938 105.152344 " fill-opacity="1" fill-rule="nonzero"/></g><g clip-path="url(#5ace6a84f1)"><g clip-path="url(#c36325251f)"><path fill="#ffffff" d="M -3.070312 302.484375 L 9.378906 280.496094 L 54.902344 306.269531 L 42.453125 328.261719 Z M -3.070312 302.484375 " fill-opacity="1" fill-rule="nonzero"/></g></g><g clip-path="url(#0b5bac92c0)"><g clip-path="url(#3c49be34eb)"><path fill="#ffffff" d="M 132.769531 75.25 L 137.519531 83.675781 L 80.085938 116.035156 L 75.339844 107.609375 Z M 132.769531 75.25 " fill-opacity="1" fill-rule="nonzero"/></g></g><g clip-path="url(#4148a956da)"><path fill="#ffffff" d="M 246.984375 200.394531 L 237.722656 200.394531 L 237.722656 85.414062 L 246.984375 85.414062 Z M 246.984375 200.394531 " fill-opacity="1" fill-rule="nonzero"/></g><g clip-path="url(#646bc23bd0)"><g clip-path="url(#4b952e85a3)"><path fill="#ffffff" d="M 223.15625 108.386719 L 219.175781 100.027344 L 335.089844 44.886719 L 339.066406 53.25 Z M 223.15625 108.386719 " fill-opacity="1" fill-rule="nonzero"/></g></g><g clip-path="url(#0b34626c99)"><g clip-path="url(#e5ed97e901)"><path fill="#ffffff" d="M 292.9375 124.335938 L 288.90625 116 L 368.421875 77.554688 L 372.453125 85.890625 Z M 292.9375 124.335938 " fill-opacity="1" fill-rule="nonzero"/></g></g><g clip-path="url(#0d5d083896)"><path fill="#ffffff" d="M 298.160156 263.765625 L 288.902344 263.765625 L 288.902344 116.019531 L 298.160156 116.019531 Z M 298.160156 263.765625 " fill-opacity="1" fill-rule="nonzero"/></g><g clip-path="url(#57be0fb035)"><g clip-path="url(#d7aadd37ea)"><path fill="#ffffff" d="M 247.09375 284.808594 L 242.359375 276.851562 L 297.824219 243.820312 L 302.5625 251.773438 Z M 247.09375 284.808594 " fill-opacity="1" fill-rule="nonzero"/></g></g><g clip-path="url(#eeffca35e7)"><g clip-path="url(#35f78bd327)"><path fill="#ffffff" d="M 137.089844 258.871094 L 142.699219 269.253906 L 46.707031 321.128906 L 41.097656 310.75 Z M 137.089844 258.871094 " fill-opacity="1" fill-rule="nonzero"/></g></g><g clip-path="url(#d4e04b3175)"><g clip-path="url(#1cefb3e484)"><path fill="#ffffff" d="M 323.128906 56.609375 L 327.996094 48.730469 L 370.453125 74.972656 L 365.585938 82.847656 Z M 323.128906 56.609375 " fill-opacity="1" fill-rule="nonzero"/></g></g><g clip-path="url(#e2c24f7fbe)"><g clip-path="url(#1480825085)"><path fill="#ffffff" d="M 227.507812 264.378906 L 234.199219 257.976562 L 255.378906 280.105469 L 248.691406 286.507812 Z M 227.507812 264.378906 " fill-opacity="1" fill-rule="nonzero"/></g></g></svg>